<svg xmlns="http://www.w3.org/2000/svg" viewBox="0 0 40 18">
  <g id="wing">
    <path d="M 3,13 3,9 7,1 39,1" style="marker-mid:url(#circle);marker-end:url(#square)" />
    <path d="M 1,17 8,3 37,3" style="marker-start:url(#circle);marker-end:url(#circle)" />
    <path d="M 3,17 9,5 13,5 15,7 21,7 23,5 34,5" style="marker-start:url(#circle);marker-end:url(#circle)" />
    <path d="M 15,5 21,5" style="marker-start:url(#circle);marker-end:url(#circle)" />
    <path d="M 5,17 10,7 13,7" style="marker-start:url(#circle);marker-end:url(#circle)" />
    <path d="M 23,7 31,7" style="marker-start:url(#circle);marker-end:url(#square)" />
    <path d="M 6,15 8,15 11,9 23,9 27,9" style="marker-end:url(#circle)" />
    <path d="M 12,11 22,11" style="marker-start:url(#circle);marker-end:url(#circle)" />
    <path d="M 11,13 16,13" style="marker-start:url(#circle);marker-end:url(#circle)" />
    <path d="M 10,15 12,15" style="marker-start:url(#circle);marker-end:url(#circle)" />
  </g>
  <defs>
    <marker id="square">
      <rect x="-1" y="-1" width="2" height="2" class="in" />
      <circle r="0.5" class="out" />
    </marker>
    <marker id="circle">
      <circle r="1" class="in" />
      <circle r="0.5" class="out" />
    </marker>
    <style type="text/css">
      <![CDATA[
          #wing path
          {
              fill: none;
              stroke: #000000;
              stroke-width: 0.5;
          }

          marker { overflow: visible; }
          marker .in  { fill: #000000; }
          marker .out { fill: #ffffff; }
      ]]>
    </style>
  </defs>
</svg>